<mxfile host="app.diagrams.net" agent="Mozilla/5.0 (Windows NT 10.0; Win64; x64) AppleWebKit/537.36 (KHTML, like Gecko) Chrome/130.0.0.0 Safari/537.36" version="24.8.2">
  <diagram name="Page-1" id="srzAFA5wGK1bmv_tZhzp">
    <mxGraphModel dx="1900" dy="569" grid="1" gridSize="10" guides="1" tooltips="1" connect="1" arrows="1" fold="1" page="1" pageScale="1" pageWidth="850" pageHeight="1100" math="0" shadow="0">
      <root>
        <mxCell id="0" />
        <mxCell id="1" parent="0" />
        <mxCell id="s5zvkutuZv6NkAI-lQkc-2" value="&lt;div&gt;Client&lt;br&gt;&lt;/div&gt;" style="rounded=0;whiteSpace=wrap;html=1;align=left;verticalAlign=top;" parent="1" vertex="1">
          <mxGeometry x="-280" y="280" width="240" height="160" as="geometry" />
        </mxCell>
        <mxCell id="o9Hfc9j2TIqxohmqbIFG-7" style="edgeStyle=orthogonalEdgeStyle;rounded=0;orthogonalLoop=1;jettySize=auto;html=1;entryX=1;entryY=0.5;entryDx=0;entryDy=0;startArrow=classic;startFill=1;" edge="1" parent="1" source="s5zvkutuZv6NkAI-lQkc-4" target="s5zvkutuZv6NkAI-lQkc-2">
          <mxGeometry relative="1" as="geometry" />
        </mxCell>
        <mxCell id="o9Hfc9j2TIqxohmqbIFG-8" style="edgeStyle=orthogonalEdgeStyle;rounded=0;orthogonalLoop=1;jettySize=auto;html=1;entryX=0;entryY=0.5;entryDx=0;entryDy=0;startArrow=classic;startFill=1;" edge="1" parent="1" source="s5zvkutuZv6NkAI-lQkc-4" target="o9Hfc9j2TIqxohmqbIFG-3">
          <mxGeometry relative="1" as="geometry" />
        </mxCell>
        <mxCell id="s5zvkutuZv6NkAI-lQkc-4" value="Server" style="rounded=0;whiteSpace=wrap;html=1;align=left;verticalAlign=top;" parent="1" vertex="1">
          <mxGeometry y="280" width="240" height="160" as="geometry" />
        </mxCell>
        <mxCell id="s5zvkutuZv6NkAI-lQkc-5" value="&lt;div align=&quot;left&quot;&gt;Users Info&lt;/div&gt;" style="rounded=0;whiteSpace=wrap;html=1;align=left;verticalAlign=top;" parent="1" vertex="1">
          <mxGeometry x="10" y="305" width="100" height="125" as="geometry" />
        </mxCell>
        <mxCell id="s5zvkutuZv6NkAI-lQkc-8" value="&lt;div&gt;Match Information&lt;br&gt;&lt;/div&gt;" style="rounded=0;whiteSpace=wrap;html=1;align=left;verticalAlign=top;" parent="1" vertex="1">
          <mxGeometry x="130" y="305" width="100" height="125" as="geometry" />
        </mxCell>
        <mxCell id="o9Hfc9j2TIqxohmqbIFG-11" style="edgeStyle=orthogonalEdgeStyle;rounded=0;orthogonalLoop=1;jettySize=auto;html=1;entryX=0;entryY=0.5;entryDx=0;entryDy=0;" edge="1" parent="1" source="s5zvkutuZv6NkAI-lQkc-37" target="s5zvkutuZv6NkAI-lQkc-2">
          <mxGeometry relative="1" as="geometry" />
        </mxCell>
        <mxCell id="s5zvkutuZv6NkAI-lQkc-37" value="Actor" style="shape=umlActor;verticalLabelPosition=bottom;verticalAlign=top;html=1;outlineConnect=0;" parent="1" vertex="1">
          <mxGeometry x="-340" y="330" width="30" height="60" as="geometry" />
        </mxCell>
        <mxCell id="o9Hfc9j2TIqxohmqbIFG-10" style="edgeStyle=orthogonalEdgeStyle;rounded=0;orthogonalLoop=1;jettySize=auto;html=1;entryX=1;entryY=0.5;entryDx=0;entryDy=0;" edge="1" parent="1" source="s5zvkutuZv6NkAI-lQkc-40" target="o9Hfc9j2TIqxohmqbIFG-3">
          <mxGeometry relative="1" as="geometry" />
        </mxCell>
        <mxCell id="s5zvkutuZv6NkAI-lQkc-40" value="Actor" style="shape=umlActor;verticalLabelPosition=bottom;verticalAlign=top;html=1;outlineConnect=0;" parent="1" vertex="1">
          <mxGeometry x="550" y="330" width="30" height="60" as="geometry" />
        </mxCell>
        <mxCell id="o9Hfc9j2TIqxohmqbIFG-1" value="&lt;div align=&quot;left&quot;&gt;Users Info&lt;/div&gt;" style="rounded=0;whiteSpace=wrap;html=1;align=left;verticalAlign=top;" vertex="1" parent="1">
          <mxGeometry x="-270" y="305" width="100" height="125" as="geometry" />
        </mxCell>
        <mxCell id="o9Hfc9j2TIqxohmqbIFG-2" value="&lt;div&gt;Match Information&lt;br&gt;&lt;/div&gt;" style="rounded=0;whiteSpace=wrap;html=1;align=left;verticalAlign=top;" vertex="1" parent="1">
          <mxGeometry x="-150" y="305" width="100" height="125" as="geometry" />
        </mxCell>
        <mxCell id="o9Hfc9j2TIqxohmqbIFG-3" value="&lt;div&gt;Enemy Client&lt;br&gt;&lt;/div&gt;" style="rounded=0;whiteSpace=wrap;html=1;align=left;verticalAlign=top;" vertex="1" parent="1">
          <mxGeometry x="280" y="280" width="240" height="160" as="geometry" />
        </mxCell>
        <mxCell id="o9Hfc9j2TIqxohmqbIFG-4" value="&lt;div align=&quot;left&quot;&gt;Users Info&lt;/div&gt;" style="rounded=0;whiteSpace=wrap;html=1;align=left;verticalAlign=top;" vertex="1" parent="1">
          <mxGeometry x="290" y="305" width="100" height="125" as="geometry" />
        </mxCell>
        <mxCell id="o9Hfc9j2TIqxohmqbIFG-5" value="&lt;div&gt;Match Information&lt;br&gt;&lt;/div&gt;" style="rounded=0;whiteSpace=wrap;html=1;align=left;verticalAlign=top;" vertex="1" parent="1">
          <mxGeometry x="410" y="305" width="100" height="125" as="geometry" />
        </mxCell>
      </root>
    </mxGraphModel>
  </diagram>
</mxfile>
